<svg width="208" height="31" viewBox="0 0 208 31" fill="none" xmlns="http://www.w3.org/2000/svg">
<path d="M8.36 30.36C5.744 30.36 3.86 29.808 2.708 28.704C1.556 27.576 0.98 25.728 0.98 23.16C0.98 22.872 0.98 22.56 0.98 22.224C0.98 21.888 0.992 21.54 1.016 21.18H6.38C6.356 21.636 6.344 22.092 6.344 22.548C6.344 23.004 6.356 23.544 6.38 24.168C6.428 24.696 6.572 25.128 6.812 25.464C7.076 25.8 7.568 25.968 8.288 25.968C8.984 25.968 9.488 25.812 9.8 25.5C10.112 25.188 10.28 24.744 10.304 24.168C10.352 23.304 10.388 22.284 10.412 21.108C10.436 19.932 10.46 18.648 10.484 17.256H9.692C9.428 17.856 8.996 18.36 8.396 18.768C7.796 19.152 7.016 19.344 6.056 19.344C5.12 19.344 4.22 19.128 3.356 18.696C2.492 18.24 1.784 17.532 1.232 16.572C0.704 15.612 0.44 14.364 0.44 12.828C0.44 11.46 0.44 10.404 0.44 9.66C0.44 8.916 0.452 8.388 0.476 8.076C0.596 5.484 1.244 3.636 2.42 2.532C3.596 1.404 5.504 0.839998 8.144 0.839998C10.832 0.839998 12.752 1.404 13.904 2.532C15.056 3.636 15.656 5.484 15.704 8.076C15.752 9.996 15.776 11.796 15.776 13.476C15.8 15.132 15.8 16.752 15.776 18.336C15.776 19.896 15.752 21.504 15.704 23.16C15.656 25.728 15.044 27.576 13.868 28.704C12.692 29.808 10.856 30.36 8.36 30.36ZM8.252 14.88C9.596 14.88 10.34 14.352 10.484 13.296C10.46 12.288 10.436 11.268 10.412 10.236C10.388 9.18 10.352 8.124 10.304 7.068C10.256 5.844 9.524 5.232 8.108 5.232C7.412 5.232 6.86 5.388 6.452 5.7C6.068 6.012 5.876 6.468 5.876 7.068C5.876 7.14 5.864 7.452 5.84 8.004C5.84 8.532 5.84 9.144 5.84 9.84C5.84 10.536 5.84 11.184 5.84 11.784C5.84 12.384 5.84 12.804 5.84 13.044C5.864 13.644 6.104 14.1 6.56 14.412C7.016 14.724 7.58 14.88 8.252 14.88ZM26.5709 30.36C23.9549 30.36 22.0709 29.808 20.9189 28.704C19.7669 27.576 19.1909 25.728 19.1909 23.16C19.1909 22.872 19.1909 22.56 19.1909 22.224C19.1909 21.888 19.2029 21.54 19.2269 21.18H24.5909C24.5669 21.636 24.5549 22.092 24.5549 22.548C24.5549 23.004 24.5669 23.544 24.5909 24.168C24.6389 24.696 24.7829 25.128 25.0229 25.464C25.2869 25.8 25.7789 25.968 26.4989 25.968C27.1949 25.968 27.6989 25.812 28.0109 25.5C28.3229 25.188 28.4909 24.744 28.5149 24.168C28.5629 23.304 28.5989 22.284 28.6229 21.108C28.6469 19.932 28.6709 18.648 28.6949 17.256H27.9029C27.6389 17.856 27.2069 18.36 26.6069 18.768C26.0069 19.152 25.2269 19.344 24.2669 19.344C23.3309 19.344 22.4309 19.128 21.5669 18.696C20.7029 18.24 19.9949 17.532 19.4429 16.572C18.9149 15.612 18.6509 14.364 18.6509 12.828C18.6509 11.46 18.6509 10.404 18.6509 9.66C18.6509 8.916 18.6629 8.388 18.6869 8.076C18.8069 5.484 19.4549 3.636 20.6309 2.532C21.8069 1.404 23.7149 0.839998 26.3549 0.839998C29.0429 0.839998 30.9629 1.404 32.1149 2.532C33.2669 3.636 33.8669 5.484 33.9149 8.076C33.9629 9.996 33.9869 11.796 33.9869 13.476C34.0109 15.132 34.0109 16.752 33.9869 18.336C33.9869 19.896 33.9629 21.504 33.9149 23.16C33.8669 25.728 33.2549 27.576 32.0789 28.704C30.9029 29.808 29.0669 30.36 26.5709 30.36ZM26.4629 14.88C27.8069 14.88 28.5509 14.352 28.6949 13.296C28.6709 12.288 28.6469 11.268 28.6229 10.236C28.5989 9.18 28.5629 8.124 28.5149 7.068C28.4669 5.844 27.7349 5.232 26.3189 5.232C25.6229 5.232 25.0709 5.388 24.6629 5.7C24.2789 6.012 24.0869 6.468 24.0869 7.068C24.0869 7.14 24.0749 7.452 24.0509 8.004C24.0509 8.532 24.0509 9.144 24.0509 9.84C24.0509 10.536 24.0509 11.184 24.0509 11.784C24.0509 12.384 24.0509 12.804 24.0509 13.044C24.0749 13.644 24.3149 14.1 24.7709 14.412C25.2269 14.724 25.7909 14.88 26.4629 14.88ZM44.772 30V1.2H50.532L50.46 8.184L49.488 14.628H50.46L52.188 8.184L54.78 1.2H60.684L55.896 13.044L60.9 30H55.428L52.296 19.02L50.28 23.376V30H44.772ZM62.7017 30V1.2H68.1017V30H62.7017ZM70.9986 30V1.2H78.8106L80.9706 10.38L82.9506 25.248H83.8866L82.8786 13.548L82.4466 1.2H87.6666V30H79.4586L77.2986 20.568L75.8226 5.916H74.8146L75.7506 18.948L76.2186 30H70.9986ZM97.8979 30.36C96.0979 30.36 94.6459 30.12 93.5419 29.64C92.4619 29.136 91.6699 28.356 91.1659 27.3C90.6619 26.244 90.3739 24.852 90.3019 23.124C90.2779 22.116 90.2539 20.976 90.2299 19.704C90.2059 18.408 90.1939 17.076 90.1939 15.708C90.1939 14.316 90.2059 12.984 90.2299 11.712C90.2539 10.44 90.2779 9.324 90.3019 8.364C90.3739 6.54 90.6619 5.076 91.1659 3.972C91.6939 2.868 92.4979 2.076 93.5779 1.596C94.6819 1.092 96.1219 0.839998 97.8979 0.839998C100.418 0.839998 102.254 1.404 103.406 2.532C104.558 3.636 105.218 5.472 105.386 8.04C105.434 8.592 105.458 9.252 105.458 10.02C105.458 10.788 105.434 11.448 105.386 12H99.9859C100.034 11.328 100.058 10.5 100.058 9.516C100.058 8.532 100.034 7.704 99.9859 7.032C99.9139 5.832 99.2179 5.232 97.8979 5.232C96.5059 5.232 95.7739 5.832 95.7019 7.032C95.6059 8.712 95.5339 10.56 95.4859 12.576C95.4619 14.592 95.4619 16.608 95.4859 18.624C95.5339 20.616 95.6059 22.452 95.7019 24.132C95.7739 25.356 96.5059 25.968 97.8979 25.968C98.5939 25.968 99.1459 25.812 99.5539 25.5C99.9619 25.188 100.19 24.732 100.238 24.132C100.262 23.844 100.274 23.484 100.274 23.052C100.298 22.596 100.298 22.14 100.274 21.684C100.274 21.228 100.262 20.868 100.238 20.604H98.2579V15.924H105.494C105.542 17.028 105.554 18.228 105.53 19.524C105.53 20.82 105.506 22.02 105.458 23.124C105.338 25.716 104.69 27.576 103.514 28.704C102.338 29.808 100.466 30.36 97.8979 30.36ZM122.612 30.36C119.972 30.36 118.088 29.808 116.96 28.704C115.856 27.576 115.244 25.716 115.124 23.124C115.1 22.548 115.088 21.9 115.088 21.18C115.112 20.436 115.172 19.776 115.268 19.2H120.344C120.296 20.088 120.26 20.964 120.236 21.828C120.236 22.668 120.272 23.436 120.344 24.132C120.464 25.356 121.22 25.968 122.612 25.968C123.308 25.968 123.824 25.812 124.16 25.5C124.496 25.188 124.7 24.732 124.772 24.132C124.916 22.908 124.916 21.696 124.772 20.496C124.724 19.992 124.568 19.536 124.304 19.128C124.04 18.72 123.62 18.444 123.044 18.3L120.092 17.544C118.22 17.064 116.912 16.26 116.168 15.132C115.424 14.004 115.028 12.54 114.98 10.74C114.956 9.78 114.956 8.88 114.98 8.04C115.052 6.312 115.34 4.92 115.844 3.864C116.372 2.808 117.176 2.04 118.256 1.56C119.36 1.08 120.812 0.839998 122.612 0.839998C125.18 0.839998 127.04 1.404 128.192 2.532C129.344 3.636 129.968 5.472 130.064 8.04C130.088 8.568 130.088 9.204 130.064 9.948C130.064 10.692 130.04 11.376 129.992 12H124.808C124.856 11.16 124.88 10.332 124.88 9.516C124.904 8.676 124.892 7.848 124.844 7.032C124.82 6.456 124.604 6.012 124.196 5.7C123.812 5.388 123.284 5.232 122.612 5.232C121.892 5.232 121.352 5.388 120.992 5.7C120.656 6.012 120.452 6.456 120.38 7.032C120.236 8.256 120.236 9.492 120.38 10.74C120.428 11.22 120.596 11.664 120.884 12.072C121.172 12.456 121.616 12.72 122.216 12.864L124.772 13.476C126.788 13.956 128.18 14.784 128.948 15.96C129.716 17.136 130.136 18.648 130.208 20.496C130.232 20.904 130.232 21.348 130.208 21.828C130.208 22.284 130.196 22.716 130.172 23.124C130.076 25.716 129.452 27.576 128.3 28.704C127.172 29.808 125.276 30.36 122.612 30.36ZM135.919 30V5.952H131.275V1.2H145.927V5.952H141.319V30H135.919ZM147.393 30V1.2H154.341C157.029 1.2 158.961 1.752 160.137 2.856C161.337 3.936 161.985 5.724 162.081 8.22C162.105 8.892 162.117 9.48 162.117 9.984C162.141 10.488 162.141 10.992 162.117 11.496C162.117 12 162.105 12.588 162.081 13.26C162.033 14.82 161.769 16.104 161.289 17.112C160.809 18.096 160.077 18.852 159.093 19.38L162.477 30H156.753L154.017 20.28H152.793V30H147.393ZM152.793 15.528H154.341C155.829 15.528 156.609 14.868 156.681 13.548C156.801 11.676 156.801 9.804 156.681 7.932C156.609 6.612 155.829 5.952 154.341 5.952H152.793V15.528ZM164.62 30V1.2H177.076V5.952H170.02V12.972H176.716V17.724H170.02V25.248H177.076V30H164.62ZM178.893 30V1.2H191.349V5.952H184.293V12.972H190.989V17.724H184.293V25.248H191.349V30H178.893ZM197.091 30V5.952H192.447V1.2H207.099V5.952H202.491V30H197.091Z" fill="#D5966C"/>
</svg>
