<svg width="239" height="110" viewBox="0 0 239 110" fill="none" xmlns="http://www.w3.org/2000/svg">
<path d="M13.12 49.6C8.6 49.6 5.38 48.68 3.46 46.84C1.54 44.96 0.54 41.86 0.46 37.54C0.42 35.86 0.4 33.94 0.4 31.78C0.4 29.58 0.4 27.32 0.4 25C0.4 22.64 0.4 20.36 0.4 18.16C0.4 15.96 0.42 14.02 0.46 12.34C0.54 8.66 1.56 5.76 3.52 3.64C5.52 1.48 8.72 0.399996 13.12 0.399996C17.44 0.399996 20.56 1.34 22.48 3.22C24.44 5.06 25.48 8.12 25.6 12.4C25.64 13.4 25.64 14.5 25.6 15.7C25.6 16.9 25.58 18 25.54 19H16.54C16.58 18.24 16.6 17.36 16.6 16.36C16.6 15.36 16.6 14.36 16.6 13.36C16.64 12.32 16.64 11.44 16.6 10.72C16.52 8.72 15.36 7.72 13.12 7.72C10.76 7.72 9.54 8.72 9.46 10.72C9.38 13.52 9.32 16.6 9.28 19.96C9.24 23.32 9.24 26.68 9.28 30.04C9.32 33.36 9.38 36.42 9.46 39.22C9.54 41.26 10.76 42.28 13.12 42.28C15.52 42.28 16.76 41.26 16.84 39.22C16.88 38.5 16.9 37.64 16.9 36.64C16.9 35.6 16.9 34.58 16.9 33.58C16.9 32.58 16.88 31.72 16.84 31H25.84C25.88 31.96 25.9 33.06 25.9 34.3C25.9 35.5 25.88 36.58 25.84 37.54C25.72 41.86 24.66 44.96 22.66 46.84C20.7 48.68 17.52 49.6 13.12 49.6ZM41.1292 49.6C36.7292 49.6 33.5292 48.68 31.5292 46.84C29.5692 44.96 28.5492 41.86 28.4692 37.54C28.3892 33.62 28.3492 29.44 28.3492 25C28.3492 20.52 28.3892 16.32 28.4692 12.4C28.5492 8.12 29.5692 5.06 31.5292 3.22C33.5292 1.34 36.7292 0.399996 41.1292 0.399996C45.5292 0.399996 48.6892 1.34 50.6092 3.22C52.5292 5.06 53.5692 8.12 53.7292 12.4C53.8892 16.4 53.9692 20.62 53.9692 25.06C53.9692 29.46 53.8892 33.62 53.7292 37.54C53.5692 41.86 52.5292 44.96 50.6092 46.84C48.6892 48.68 45.5292 49.6 41.1292 49.6ZM41.1292 42.28C43.4492 42.28 44.6492 41.26 44.7292 39.22C44.8092 37.18 44.8692 34.94 44.9092 32.5C44.9892 30.06 45.0292 27.56 45.0292 25C45.0292 22.4 44.9892 19.88 44.9092 17.44C44.8692 15 44.8092 12.76 44.7292 10.72C44.6492 8.72 43.4492 7.72 41.1292 7.72C38.7692 7.72 37.5492 8.72 37.4692 10.72C37.3892 12.76 37.3292 15 37.2892 17.44C37.2492 19.88 37.2292 22.4 37.2292 25C37.2292 27.56 37.2492 30.06 37.2892 32.5C37.3292 34.94 37.3892 37.18 37.4692 39.22C37.5492 41.26 38.7692 42.28 41.1292 42.28ZM57.5875 49V0.999999H72.0475L76.0075 19.18L76.7875 41.08H78.3475L79.0675 19.18L83.0875 0.999999H97.4875V49H88.4875V34.24L90.2275 8.92H88.6075L86.0875 34.84L82.3675 49H72.7075L69.0475 34.84L66.4675 8.92H64.9075L66.5875 34.24V49H57.5875ZM102.295 49V0.999999H123.055V8.92H111.295V20.62H122.455V28.54H111.295V41.08H123.055V49H102.295ZM153.113 49.6C148.593 49.6 145.313 48.68 143.273 46.84C141.233 44.96 140.113 41.88 139.913 37.6C139.913 37.08 139.893 36.7 139.853 36.46C139.853 36.22 139.853 35.98 139.853 35.74C139.853 35.5 139.853 35.12 139.853 34.6C139.893 34.08 139.913 33.28 139.913 32.2C139.953 29.64 140.513 27.6 141.593 26.08C142.673 24.56 143.933 23.24 145.373 22.12C143.773 18.96 142.773 15.92 142.373 13C141.853 9.28 142.493 6.26 144.293 3.94C146.093 1.58 149.113 0.399996 153.353 0.399996C157.353 0.399996 160.233 1.46 161.993 3.58C163.753 5.66 164.413 8.62 163.973 12.46C163.733 14.66 162.973 16.76 161.693 18.76C160.413 20.76 158.533 22.68 156.053 24.52C156.613 25.36 157.173 26.2 157.733 27.04C158.333 27.84 158.953 28.64 159.593 29.44C159.553 28.76 159.493 28.04 159.413 27.28C159.333 26.48 159.233 25.6 159.113 24.64H166.313C166.513 26.48 166.653 28.62 166.733 31.06C166.853 33.5 166.813 35.74 166.613 37.78C167.733 39.02 168.773 40.14 169.733 41.14C170.693 42.14 171.513 42.98 172.193 43.66L166.433 49.24C165.913 48.68 165.373 48.12 164.813 47.56C164.253 46.96 163.693 46.38 163.133 45.82C162.093 47.14 160.753 48.1 159.113 48.7C157.473 49.3 155.473 49.6 153.113 49.6ZM152.213 17.92C153.653 16.88 154.633 15.9 155.153 14.98C155.713 14.02 156.073 13.18 156.233 12.46C156.593 10.62 156.573 9.14 156.173 8.02C155.773 6.86 154.833 6.28 153.353 6.28C152.113 6.28 151.253 6.82 150.773 7.9C150.333 8.94 150.173 10.14 150.293 11.5C150.373 12.46 150.573 13.48 150.893 14.56C151.253 15.64 151.693 16.76 152.213 17.92ZM153.353 42.52C155.593 42.52 157.033 41.6 157.673 39.76C156.273 38.12 154.893 36.44 153.533 34.72C152.173 33 150.893 31.28 149.693 29.56C149.413 29.96 149.173 30.4 148.973 30.88C148.773 31.36 148.653 31.92 148.613 32.56C148.573 33.28 148.533 33.86 148.493 34.3C148.493 34.74 148.493 35.22 148.493 35.74C148.533 36.22 148.573 36.92 148.613 37.84C148.813 40.96 150.393 42.52 153.353 42.52ZM190.185 49V0.999999H201.285C205.765 0.999999 209.025 1.92 211.065 3.76C213.145 5.56 214.185 8.54 214.185 12.7C214.185 13.26 214.185 13.8 214.185 14.32C214.185 14.84 214.165 15.36 214.125 15.88C213.965 18.08 213.465 19.82 212.625 21.1C211.785 22.38 210.485 23.32 208.725 23.92V25.36C210.565 25.96 211.905 26.92 212.745 28.24C213.625 29.56 214.105 31.34 214.185 33.58C214.225 34.78 214.225 36.02 214.185 37.3C214.025 41.46 212.945 44.46 210.945 46.3C208.985 48.1 205.765 49 201.285 49H190.185ZM199.185 20.62H201.285C202.565 20.62 203.525 20.2 204.165 19.36C204.845 18.48 205.185 17.24 205.185 15.64V12.22C205.185 10.02 203.885 8.92 201.285 8.92H199.185V20.62ZM199.185 41.08H201.285C203.885 41.08 205.185 39.78 205.185 37.18V34C205.185 32 204.885 30.6 204.285 29.8C203.685 28.96 202.685 28.54 201.285 28.54H199.185V41.08ZM217.255 49V0.999999H238.015V8.92H226.255V20.62H237.415V28.54H226.255V41.08H238.015V49H217.255ZM0.4 109V61H9.4V109H0.4ZM14.2281 109V61H27.2481L30.8481 76.3L34.1481 101.08H35.7081L34.0281 81.58L33.3081 61H42.0081V109H28.3281L24.7281 93.28L22.2681 68.86H20.5881L22.1481 90.58L22.9281 109H14.2281ZM59.0003 109.6C54.6003 109.6 51.4603 108.68 49.5803 106.84C47.7403 104.96 46.7203 101.86 46.5203 97.54C46.4803 96.58 46.4603 95.5 46.4603 94.3C46.5003 93.06 46.6003 91.96 46.7603 91H55.2203C55.1403 92.48 55.0803 93.94 55.0403 95.38C55.0403 96.78 55.1003 98.06 55.2203 99.22C55.4203 101.26 56.6803 102.28 59.0003 102.28C60.1603 102.28 61.0203 102.02 61.5803 101.5C62.1403 100.98 62.4803 100.22 62.6003 99.22C62.8403 97.18 62.8403 95.16 62.6003 93.16C62.5203 92.32 62.2603 91.56 61.8203 90.88C61.3803 90.2 60.6803 89.74 59.7203 89.5L54.8003 88.24C51.6803 87.44 49.5003 86.1 48.2603 84.22C47.0203 82.34 46.3603 79.9 46.2803 76.9C46.2403 75.3 46.2403 73.8 46.2803 72.4C46.4003 69.52 46.8803 67.2 47.7203 65.44C48.6003 63.68 49.9403 62.4 51.7403 61.6C53.5803 60.8 56.0003 60.4 59.0003 60.4C63.2803 60.4 66.3803 61.34 68.3003 63.22C70.2203 65.06 71.2603 68.12 71.4203 72.4C71.4603 73.28 71.4603 74.34 71.4203 75.58C71.4203 76.82 71.3803 77.96 71.3003 79H62.6603C62.7403 77.6 62.7803 76.22 62.7803 74.86C62.8203 73.46 62.8003 72.08 62.7203 70.72C62.6803 69.76 62.3203 69.02 61.6403 68.5C61.0003 67.98 60.1203 67.72 59.0003 67.72C57.8003 67.72 56.9003 67.98 56.3003 68.5C55.7403 69.02 55.4003 69.76 55.2803 70.72C55.0403 72.76 55.0403 74.82 55.2803 76.9C55.3603 77.7 55.6403 78.44 56.1203 79.12C56.6003 79.76 57.3403 80.2 58.3403 80.44L62.6003 81.46C65.9603 82.26 68.2803 83.64 69.5603 85.6C70.8403 87.56 71.5403 90.08 71.6603 93.16C71.7003 93.84 71.7003 94.58 71.6603 95.38C71.6603 96.14 71.6403 96.86 71.6003 97.54C71.4403 101.86 70.4003 104.96 68.4803 106.84C66.6003 108.68 63.4403 109.6 59.0003 109.6ZM75.2828 109V61H86.8628C91.3428 61 94.5628 61.92 96.5228 63.76C98.5228 65.56 99.6028 68.54 99.7628 72.7C99.8428 74.38 99.8828 75.94 99.8828 77.38C99.8828 78.82 99.8428 80.38 99.7628 82.06C99.6028 86.22 98.5228 89.22 96.5228 91.06C94.5628 92.86 91.3428 93.76 86.8628 93.76H84.2828V109H75.2828ZM84.2828 85.84H86.8628C89.3428 85.84 90.6428 84.74 90.7628 82.54C90.8428 81.06 90.8828 79.34 90.8828 77.38C90.8828 75.42 90.8428 73.7 90.7628 72.22C90.6428 70.02 89.3428 68.92 86.8628 68.92H84.2828V85.84ZM103.408 109V61H112.408V109H103.408ZM117.236 109V61H128.816C133.296 61 136.516 61.92 138.476 63.76C140.476 65.56 141.556 68.54 141.716 72.7C141.756 73.82 141.776 74.8 141.776 75.64C141.816 76.48 141.816 77.32 141.776 78.16C141.776 79 141.756 79.98 141.716 81.1C141.636 83.7 141.196 85.84 140.396 87.52C139.596 89.16 138.376 90.42 136.736 91.3L142.376 109H132.836L128.276 92.8H126.236V109H117.236ZM126.236 84.88H128.816C131.296 84.88 132.596 83.78 132.716 81.58C132.916 78.46 132.916 75.34 132.716 72.22C132.596 70.02 131.296 68.92 128.816 68.92H126.236V84.88ZM145.947 109V61H166.707V68.92H154.947V80.62H166.107V88.54H154.947V101.08H166.707V109H145.947ZM169.736 109V61H181.916C186.436 61 189.696 61.96 191.696 63.88C193.696 65.76 194.736 68.9 194.816 73.3C194.896 76.06 194.936 78.7 194.936 81.22C194.976 83.7 194.976 86.2 194.936 88.72C194.936 91.2 194.896 93.84 194.816 96.64C194.736 101.04 193.696 104.2 191.696 106.12C189.696 108.04 186.436 109 181.916 109H169.736ZM178.736 101.08H181.916C184.436 101.08 185.736 99.96 185.816 97.72C186.056 89.2 186.056 80.7 185.816 72.22C185.736 70.02 184.436 68.92 181.916 68.92H178.736V101.08Z" fill="white"/>
</svg>
