<svg width="237" height="128" viewBox="0 0 237 128" fill="none" xmlns="http://www.w3.org/2000/svg">
<path d="M15.71 57.7C10.5767 57.7 6.84333 56.6267 4.51 54.48C2.22333 52.2867 1.03333 48.67 0.94 43.63C0.846667 39.0567 0.8 34.18 0.8 29C0.8 23.7733 0.846667 18.8733 0.94 14.3C1.03333 9.30667 2.22333 5.73667 4.51 3.59C6.84333 1.39666 10.5767 0.299996 15.71 0.299996C20.8433 0.299996 24.53 1.39666 26.77 3.59C29.01 5.73667 30.2233 9.30667 30.41 14.3C30.5967 18.9667 30.69 23.89 30.69 29.07C30.69 34.2033 30.5967 39.0567 30.41 43.63C30.2233 48.67 29.01 52.2867 26.77 54.48C24.53 56.6267 20.8433 57.7 15.71 57.7ZM15.71 49.16C18.4167 49.16 19.8167 47.97 19.91 45.59C20.0033 43.21 20.0733 40.5967 20.12 37.75C20.2133 34.9033 20.26 31.9867 20.26 29C20.26 25.9667 20.2133 23.0267 20.12 20.18C20.0733 17.3333 20.0033 14.72 19.91 12.34C19.8167 10.0067 18.4167 8.84 15.71 8.84C12.9567 8.84 11.5333 10.0067 11.44 12.34C11.3467 14.72 11.2767 17.3333 11.23 20.18C11.1833 23.0267 11.16 25.9667 11.16 29C11.16 31.9867 11.1833 34.9033 11.23 37.75C11.2767 40.5967 11.3467 43.21 11.44 45.59C11.5333 47.97 12.9567 49.16 15.71 49.16ZM49.8213 57.7C44.5947 57.7 40.838 56.6267 38.5513 54.48C36.3113 52.2867 35.1447 48.67 35.0513 43.63C34.818 29.3967 34.818 15.1867 35.0513 0.999999H45.5513C45.458 5.66666 45.388 10.5667 45.3413 15.7C45.3413 20.7867 45.3647 25.8733 45.4113 30.96C45.458 36 45.5047 40.8767 45.5513 45.59C45.5513 47.97 46.9747 49.16 49.8213 49.16C52.6213 49.16 54.0213 47.97 54.0213 45.59C54.068 40.8767 54.1147 36 54.1613 30.96C54.208 25.8733 54.208 20.7867 54.1613 15.7C54.1613 10.5667 54.1147 5.66666 54.0213 0.999999H64.5213C64.7547 15.1867 64.7547 29.3967 64.5213 43.63C64.4747 48.67 63.308 52.2867 61.0213 54.48C58.7813 56.6267 55.048 57.7 49.8213 57.7ZM70.2531 57V0.999999H83.7631C88.9898 0.999999 92.7465 2.07333 95.0331 4.22C97.3665 6.32 98.6265 9.79666 98.8131 14.65C98.8598 15.9567 98.8831 17.1 98.8831 18.08C98.9298 19.06 98.9298 20.04 98.8831 21.02C98.8831 22 98.8598 23.1433 98.8131 24.45C98.7198 27.4833 98.2065 29.98 97.2731 31.94C96.3398 33.8533 94.9165 35.3233 93.0031 36.35L99.5831 57H88.4531L83.1331 38.1H80.7531V57H70.2531ZM80.7531 28.86H83.7631C86.6565 28.86 88.1731 27.5767 88.3131 25.01C88.5465 21.37 88.5465 17.73 88.3131 14.09C88.1731 11.5233 86.6565 10.24 83.7631 10.24H80.7531V28.86ZM0.8 127V71H11.3V117.76H25.09V127H0.8ZM42.8487 127.7C37.7153 127.7 33.982 126.627 31.6487 124.48C29.362 122.287 28.172 118.67 28.0787 113.63C27.9853 109.057 27.9387 104.18 27.9387 99C27.9387 93.7733 27.9853 88.8733 28.0787 84.3C28.172 79.3067 29.362 75.7367 31.6487 73.59C33.982 71.3967 37.7153 70.3 42.8487 70.3C47.982 70.3 51.6687 71.3967 53.9087 73.59C56.1487 75.7367 57.362 79.3067 57.5487 84.3C57.7353 88.9667 57.8287 93.89 57.8287 99.07C57.8287 104.203 57.7353 109.057 57.5487 113.63C57.362 118.67 56.1487 122.287 53.9087 124.48C51.6687 126.627 47.982 127.7 42.8487 127.7ZM42.8487 119.16C45.5553 119.16 46.9553 117.97 47.0487 115.59C47.142 113.21 47.212 110.597 47.2587 107.75C47.352 104.903 47.3987 101.987 47.3987 99C47.3987 95.9667 47.352 93.0267 47.2587 90.18C47.212 87.3333 47.142 84.72 47.0487 82.34C46.9553 80.0067 45.5553 78.84 42.8487 78.84C40.0953 78.84 38.672 80.0067 38.5787 82.34C38.4853 84.72 38.4153 87.3333 38.3687 90.18C38.322 93.0267 38.2987 95.9667 38.2987 99C38.2987 101.987 38.322 104.903 38.3687 107.75C38.4153 110.597 38.4853 113.21 38.5787 115.59C38.672 117.97 40.0953 119.16 42.8487 119.16ZM76.89 127.7C71.6167 127.7 67.86 126.627 65.62 124.48C63.38 122.287 62.2133 118.67 62.12 113.63C62.0733 111.67 62.05 109.43 62.05 106.91C62.05 104.343 62.05 101.707 62.05 99C62.05 96.2467 62.05 93.5867 62.05 91.02C62.05 88.4533 62.0733 86.19 62.12 84.23C62.2133 79.9367 63.4033 76.5533 65.69 74.08C68.0233 71.56 71.7567 70.3 76.89 70.3C81.93 70.3 85.57 71.3967 87.81 73.59C90.0967 75.7367 91.31 79.3067 91.45 84.3C91.4967 85.4667 91.4967 86.75 91.45 88.15C91.45 89.55 91.4267 90.8333 91.38 92H80.88C80.9267 91.1133 80.95 90.0867 80.95 88.92C80.95 87.7533 80.95 86.5867 80.95 85.42C80.9967 84.2067 80.9967 83.18 80.95 82.34C80.8567 80.0067 79.5033 78.84 76.89 78.84C74.1367 78.84 72.7133 80.0067 72.62 82.34C72.5267 85.6067 72.4567 89.2 72.41 93.12C72.3633 97.04 72.3633 100.96 72.41 104.88C72.4567 108.753 72.5267 112.323 72.62 115.59C72.7133 117.97 74.1367 119.16 76.89 119.16C79.69 119.16 81.1367 117.97 81.23 115.59C81.2767 114.75 81.3 113.747 81.3 112.58C81.3 111.367 81.3 110.177 81.3 109.01C81.3 107.843 81.2767 106.84 81.23 106H91.73C91.7767 107.12 91.8 108.403 91.8 109.85C91.8 111.25 91.7767 112.51 91.73 113.63C91.59 118.67 90.3533 122.287 88.02 124.48C85.7333 126.627 82.0233 127.7 76.89 127.7ZM93.2574 127L101.027 71H117.547L125.317 127H114.537L113.347 115.31H105.227L104.037 127H93.2574ZM106.207 106.07H112.367L111.107 93.68L110.267 80.24H108.307L107.467 93.68L106.207 106.07ZM132.229 127V80.24H123.199V71H151.689V80.24H142.729V127H132.229ZM154.54 127V71H165.04V127H154.54ZM184.899 127.7C179.766 127.7 176.033 126.627 173.699 124.48C171.413 122.287 170.223 118.67 170.129 113.63C170.036 109.057 169.989 104.18 169.989 99C169.989 93.7733 170.036 88.8733 170.129 84.3C170.223 79.3067 171.413 75.7367 173.699 73.59C176.033 71.3967 179.766 70.3 184.899 70.3C190.033 70.3 193.719 71.3967 195.959 73.59C198.199 75.7367 199.413 79.3067 199.599 84.3C199.786 88.9667 199.879 93.89 199.879 99.07C199.879 104.203 199.786 109.057 199.599 113.63C199.413 118.67 198.199 122.287 195.959 124.48C193.719 126.627 190.033 127.7 184.899 127.7ZM184.899 119.16C187.606 119.16 189.006 117.97 189.099 115.59C189.193 113.21 189.263 110.597 189.309 107.75C189.403 104.903 189.449 101.987 189.449 99C189.449 95.9667 189.403 93.0267 189.309 90.18C189.263 87.3333 189.193 84.72 189.099 82.34C189.006 80.0067 187.606 78.84 184.899 78.84C182.146 78.84 180.723 80.0067 180.629 82.34C180.536 84.72 180.466 87.3333 180.419 90.18C180.373 93.0267 180.349 95.9667 180.349 99C180.349 101.987 180.373 104.903 180.419 107.75C180.466 110.597 180.536 113.21 180.629 115.59C180.723 117.97 182.146 119.16 184.899 119.16ZM204.101 127V71H219.291L223.491 88.85L227.341 117.76H229.161L227.201 95.01L226.361 71H236.511V127H220.551L216.351 108.66L213.481 80.17H211.521L213.341 105.51L214.251 127H204.101Z" fill="white"/>
</svg>
