<svg width="275" height="110" viewBox="0 0 275 110" fill="none" xmlns="http://www.w3.org/2000/svg">
<path d="M9.2 49V37.54L8.54 34.84L0.2 0.999999H9.38L11.96 12.64L12.86 26.74H14.54L15.44 12.64L18.02 0.999999H27.2L18.86 34.78L18.2 37.54V49H9.2ZM40.6058 49.6C36.2058 49.6 33.0058 48.68 31.0058 46.84C29.0458 44.96 28.0258 41.86 27.9458 37.54C27.8658 33.62 27.8258 29.44 27.8258 25C27.8258 20.52 27.8658 16.32 27.9458 12.4C28.0258 8.12 29.0458 5.06 31.0058 3.22C33.0058 1.34 36.2058 0.399996 40.6058 0.399996C45.0058 0.399996 48.1658 1.34 50.0858 3.22C52.0058 5.06 53.0458 8.12 53.2058 12.4C53.3658 16.4 53.4458 20.62 53.4458 25.06C53.4458 29.46 53.3658 33.62 53.2058 37.54C53.0458 41.86 52.0058 44.96 50.0858 46.84C48.1658 48.68 45.0058 49.6 40.6058 49.6ZM40.6058 42.28C42.9258 42.28 44.1258 41.26 44.2058 39.22C44.2858 37.18 44.3458 34.94 44.3858 32.5C44.4658 30.06 44.5058 27.56 44.5058 25C44.5058 22.4 44.4658 19.88 44.3858 17.44C44.3458 15 44.2858 12.76 44.2058 10.72C44.1258 8.72 42.9258 7.72 40.6058 7.72C38.2458 7.72 37.0258 8.72 36.9458 10.72C36.8658 12.76 36.8058 15 36.7658 17.44C36.7258 19.88 36.7058 22.4 36.7058 25C36.7058 27.56 36.7258 30.06 36.7658 32.5C36.8058 34.94 36.8658 37.18 36.9458 39.22C37.0258 41.26 38.2458 42.28 40.6058 42.28ZM69.8441 49.6C65.3641 49.6 62.1441 48.68 60.1841 46.84C58.2641 44.96 57.2641 41.86 57.1841 37.54C56.9841 25.34 56.9841 13.16 57.1841 0.999999H66.1841C66.1041 5 66.0441 9.2 66.0041 13.6C66.0041 17.96 66.0241 22.32 66.0641 26.68C66.1041 31 66.1441 35.18 66.1841 39.22C66.1841 41.26 67.4041 42.28 69.8441 42.28C72.2441 42.28 73.4441 41.26 73.4441 39.22C73.4841 35.18 73.5241 31 73.5641 26.68C73.6041 22.32 73.6041 17.96 73.5641 13.6C73.5641 9.2 73.5241 5 73.4441 0.999999H82.4441C82.6441 13.16 82.6441 25.34 82.4441 37.54C82.4041 41.86 81.4041 44.96 79.4441 46.84C77.5241 48.68 74.3241 49.6 69.8441 49.6ZM87.357 49V0.999999H98.937C103.417 0.999999 106.637 1.92 108.597 3.76C110.597 5.56 111.677 8.54 111.837 12.7C111.877 13.82 111.897 14.8 111.897 15.64C111.937 16.48 111.937 17.32 111.897 18.16C111.897 19 111.877 19.98 111.837 21.1C111.757 23.7 111.317 25.84 110.517 27.52C109.717 29.16 108.497 30.42 106.857 31.3L112.497 49H102.957L98.397 32.8H96.357V49H87.357ZM96.357 24.88H98.937C101.417 24.88 102.717 23.78 102.837 21.58C103.037 18.46 103.037 15.34 102.837 12.22C102.717 10.02 101.417 8.92 98.937 8.92H96.357V24.88ZM129.252 49V0.999999H141.432C145.952 0.999999 149.212 1.96 151.212 3.88C153.212 5.76 154.252 8.9 154.332 13.3C154.412 16.06 154.452 18.7 154.452 21.22C154.492 23.7 154.492 26.2 154.452 28.72C154.452 31.2 154.412 33.84 154.332 36.64C154.252 41.04 153.212 44.2 151.212 46.12C149.212 48.04 145.952 49 141.432 49H129.252ZM138.252 41.08H141.432C143.952 41.08 145.252 39.96 145.332 37.72C145.572 29.2 145.572 20.7 145.332 12.22C145.252 10.02 143.952 8.92 141.432 8.92H138.252V41.08ZM156.88 49L163.54 0.999999H177.7L184.36 49H175.12L174.1 38.98H167.14L166.12 49H156.88ZM167.98 31.06H173.26L172.18 20.44L171.46 8.92H169.78L169.06 20.44L167.98 31.06ZM190.372 49V37.54L189.712 34.84L181.372 0.999999H190.552L193.132 12.64L194.032 26.74H195.712L196.612 12.64L199.192 0.999999H208.372L200.032 34.78L199.372 37.54V49H190.372ZM222.915 49L229.575 0.999999H243.735L250.395 49H241.155L240.135 38.98H233.175L232.155 49H222.915ZM234.015 31.06H239.295L238.215 20.44L237.495 8.92H235.815L235.095 20.44L234.015 31.06ZM256.319 49V8.92H248.579V0.999999H272.999V8.92H265.319V49H256.319ZM7.94 109V68.92H0.2V61H24.62V68.92H16.94V109H7.94ZM27.0641 109V61H36.0641V80.62H42.3641V61H51.3641V109H42.3641V88.54H36.0641V109H27.0641ZM56.1852 109V61H76.9452V68.92H65.1852V80.62H76.3452V88.54H65.1852V101.08H76.9452V109H56.1852ZM106.584 109.6C103.584 109.6 101.164 109.2 99.3238 108.4C97.5238 107.56 96.2038 106.26 95.3638 104.5C94.5238 102.74 94.0438 100.42 93.9238 97.54C93.8838 95.86 93.8438 93.96 93.8038 91.84C93.7638 89.68 93.7438 87.46 93.7438 85.18C93.7438 82.86 93.7638 80.64 93.8038 78.52C93.8438 76.4 93.8838 74.54 93.9238 72.94C94.0438 69.9 94.5238 67.46 95.3638 65.62C96.2438 63.78 97.5838 62.46 99.3838 61.66C101.224 60.82 103.624 60.4 106.584 60.4C110.784 60.4 113.844 61.34 115.764 63.22C117.684 65.06 118.784 68.12 119.064 72.4C119.144 73.32 119.184 74.42 119.184 75.7C119.184 76.98 119.144 78.08 119.064 79H110.064C110.144 77.88 110.184 76.5 110.184 74.86C110.184 73.22 110.144 71.84 110.064 70.72C109.944 68.72 108.784 67.72 106.584 67.72C104.264 67.72 103.044 68.72 102.924 70.72C102.764 73.52 102.644 76.6 102.564 79.96C102.524 83.32 102.524 86.68 102.564 90.04C102.644 93.36 102.764 96.42 102.924 99.22C103.044 101.26 104.264 102.28 106.584 102.28C107.744 102.28 108.664 102.02 109.344 101.5C110.024 100.98 110.404 100.22 110.484 99.22C110.524 98.74 110.544 98.14 110.544 97.42C110.584 96.66 110.584 95.9 110.544 95.14C110.544 94.38 110.524 93.78 110.484 93.34H107.184V85.54H119.244C119.324 87.38 119.344 89.38 119.304 91.54C119.304 93.7 119.264 95.7 119.184 97.54C118.984 101.86 117.904 104.96 115.944 106.84C113.984 108.68 110.864 109.6 106.584 109.6ZM120.61 109L127.27 61H141.43L148.09 109H138.85L137.83 98.98H130.87L129.85 109H120.61ZM131.71 91.06H136.99L135.91 80.44L135.19 68.92H133.51L132.79 80.44L131.71 91.06ZM150.521 109V61H159.521V101.08H171.341V109H150.521ZM174.369 109V61H183.369V101.08H195.189V109H174.369ZM198.216 109V61H218.976V68.92H207.216V80.62H218.376V88.54H207.216V101.08H218.976V109H198.216ZM222.005 109V61H233.585C238.065 61 241.285 61.92 243.245 63.76C245.245 65.56 246.325 68.54 246.485 72.7C246.525 73.82 246.545 74.8 246.545 75.64C246.585 76.48 246.585 77.32 246.545 78.16C246.545 79 246.525 79.98 246.485 81.1C246.405 83.7 245.965 85.84 245.165 87.52C244.365 89.16 243.145 90.42 241.505 91.3L247.145 109H237.605L233.045 92.8H231.005V109H222.005ZM231.005 84.88H233.585C236.065 84.88 237.365 83.78 237.485 81.58C237.685 78.46 237.685 75.34 237.485 72.22C237.365 70.02 236.065 68.92 233.585 68.92H231.005V84.88ZM256.114 109V97.54L255.454 94.84L247.114 61H256.294L258.874 72.64L259.774 86.74H261.454L262.354 72.64L264.934 61H274.114L265.774 94.78L265.114 97.54V109H256.114Z" fill="#151515"/>
</svg>
